# xmcd CD database file
#
# Track frame offsets:
#	150
#	17915
#	33527
#	53286
#	66866
#	88431
#	93009
#	105120
#	117979
#	137334
#	148282
#
# Disc length: 2169 seconds
#
# Revision: 0
# Processed by: cddbd v1.5.2PL0 Copyright (c) Steve Scherf et al.
# Submitted via: CDex 1.70beta2
#
DISCID=8c08770b
DTITLE=Roy Rogers - Chops not Chaps
DYEAR=1986
DGENRE=Blues
TTITLE0=32-20 Blues
TTITLE1=Hot To Trot/Ready To Go
TTITLE2=Guilty of Lovin' You
TTITLE3=Judgement Day
TTITLE4=Devil Got My Woman
TTITLE5=Feel So Blue
TTITLE6=Terraplane Blues
TTITLE7=Kind Hearted Woman Blues
TTITLE8=One More Time
TTITLE9=Shake Your Moneymaker
TTITLE10=Happy Trails
EXTD=YEAR: 1986
EXTT0=
EXTT1=
EXTT2=
EXTT3=
EXTT4=
EXTT5=
EXTT6=
EXTT7=
EXTT8=
EXTT9=
EXTT10=
PLAYORDER=
